<?xml version="1.0" encoding="UTF-8" standalone="no"?>
<!-- Created with Inkscape (http://www.inkscape.org/) -->

<svg
   xmlns:dc="http://purl.org/dc/elements/1.1/"
   xmlns:cc="http://creativecommons.org/ns#"
   xmlns:rdf="http://www.w3.org/1999/02/22-rdf-syntax-ns#"
   xmlns:svg="http://www.w3.org/2000/svg"
   xmlns="http://www.w3.org/2000/svg"
   xmlns:sodipodi="http://sodipodi.sourceforge.net/DTD/sodipodi-0.dtd"
   xmlns:inkscape="http://www.inkscape.org/namespaces/inkscape"
   id="svg2"
   version="1.1"
   inkscape:version="0.91 r13725"
   xml:space="preserve"
   width="354.97684"
   height="364.38046"
   viewBox="0 0 354.97684 364.38046"
   sodipodi:docname="rempi_logo2.svg"><metadata
     id="metadata8"><rdf:RDF><cc:Work
         rdf:about=""><dc:format>image/svg+xml</dc:format><dc:type
           rdf:resource="http://purl.org/dc/dcmitype/StillImage" /><dc:title></dc:title></cc:Work></rdf:RDF></metadata><defs
     id="defs6"><clipPath
       clipPathUnits="userSpaceOnUse"
       id="clipPath24"><path
         d="M 0,0 263,0 263,292 0,292 0,0 Z"
         id="path26"
         inkscape:connector-curvature="0" /></clipPath><clipPath
       clipPathUnits="userSpaceOnUse"
       id="clipPath40"><path
         d="m 0,291.504 23.637,0 0,-292 -23.637,0 0,292 z"
         id="path42"
         inkscape:connector-curvature="0" /></clipPath><clipPath
       clipPathUnits="userSpaceOnUse"
       id="clipPath50"><path
         d="m 0,292 0,0 0,0 0,0 z"
         id="path52"
         inkscape:connector-curvature="0" /></clipPath><clipPath
       clipPathUnits="userSpaceOnUse"
       id="clipPath60"><path
         d="m 242.637,184.817 41.344,0 0,-103 -41.344,0 0,103 z"
         id="path62"
         inkscape:connector-curvature="0" /></clipPath><clipPath
       clipPathUnits="userSpaceOnUse"
       id="clipPath70"><path
         d="m 242,82 42,0 0,103 -42,0 0,-103 z"
         id="path72"
         inkscape:connector-curvature="0" /></clipPath></defs><sodipodi:namedview
     pagecolor="#ffffff"
     bordercolor="#666666"
     borderopacity="1"
     objecttolerance="10"
     gridtolerance="10"
     guidetolerance="10"
     inkscape:pageopacity="0"
     inkscape:pageshadow="2"
     inkscape:window-width="1280"
     inkscape:window-height="682"
     id="namedview4"
     showgrid="false"
     inkscape:zoom="0.64767468"
     inkscape:cx="177.48842"
     inkscape:cy="182.18813"
     inkscape:window-x="0"
     inkscape:window-y="1"
     inkscape:window-maximized="1"
     inkscape:current-layer="g10" /><g
     id="g10"
     inkscape:groupmode="layer"
     inkscape:label="rempi_logo2"
     transform="matrix(1.25,0,0,-1.25,0,364.38045)"><g
       id="g3472"><g
         id="g12"><path
           inkscape:connector-curvature="0"
           id="path14"
           style="fill:#454242;fill-opacity:1;fill-rule:nonzero;stroke:none"
           d="M 254.742,104.075 C 245.434,74.836 227.062,49.801 201.387,33.77 153.086,3.61 73.633,5.727 32.344,56.942 -7.609,106.493 15.082,196.946 60.508,238.801 c 42.402,39.071 109.601,38.438 149.797,-1.414 l 3.289,-3.262 -4.578,0.715 -1.629,0.254 c -13.594,2.129 -27.653,4.328 -41.524,6.035 -2.691,0.328 -4.273,-1.476 -4.605,-3.293 -0.281,-1.566 0.324,-3.457 2.887,-4.078 13.32,-3.23 26.972,-6.07 40.179,-8.812 12.266,-2.551 24.957,-5.188 37.367,-8.137 2.52,-0.598 4.723,0.094 6.204,1.953 1.734,2.176 2.035,5.395 0.746,8.012 l -16.735,33.976 c -1.054,2.137 -2.051,4.356 -3.058,6.59 -3.578,7.942 -7.278,16.16 -13.868,21.52 -1.519,1.238 -3.593,1.496 -5.285,0.66 -1.492,-0.738 -2.316,-2.16 -2.261,-3.898 0.265,-8.407 4.257,-15.75 8.484,-23.528 1.09,-2 2.18,-4 3.199,-6.015 l 0.695,-1.383 10.45,-20.684 1.304,-2.578 -2.859,0.422 -1.535,0.211 -1.692,0.238 -2.023,0.301 0.895,1.84 c 0.578,1.183 0.972,2.992 -0.426,4.879 -26.824,36.203 -79.067,50.543 -127.043,34.871 C 38.551,255.133 10.391,197.454 3.488,149.829 -5.969,84.536 18.258,36.09 71.707,13.403 c 49.262,-20.906 108.809,-13.778 148.18,17.738 43.363,34.719 61.625,94.633 45.824,146.227" /></g><g
         id="g16"><g
           transform="translate(0,-0.495636)"
           id="g18"><g
             id="g20"><g
               clip-path="url(#clipPath24)"
               id="g22"><g
                 id="g28"><g
                   transform="translate(0,292)"
                   id="g30"><path
                     inkscape:connector-curvature="0"
                     id="path32"
                     style="fill:none;stroke:#ffffff;stroke-width:3;stroke-linecap:butt;stroke-linejoin:miter;stroke-miterlimit:10;stroke-dasharray:none;stroke-opacity:1"
                     d="m 247.895,-72.742 c 1.734,2.172 2.035,5.394 0.746,8.012 l -16.735,33.976 c -1.054,2.137 -2.051,4.352 -3.058,6.586 -3.578,7.949 -7.278,16.164 -13.868,21.523 -1.519,1.239 -3.593,1.497 -5.285,0.661 -1.492,-0.739 -2.316,-2.161 -2.261,-3.899 0.265,-8.406 4.257,-15.75 8.484,-23.527 1.09,-2 2.18,-4 3.199,-6.016 l 0.695,-1.383 10.45,-20.683 1.304,-2.578 -2.859,0.418 -1.535,0.214 -1.692,0.239 -2.023,0.301 0.895,1.839 c 0.578,1.184 0.972,2.989 -0.426,4.875 -26.824,36.207 -79.067,50.547 -127.043,34.875 -58.332,-19.062 -86.492,-76.738 -93.395,-124.363 -9.457,-65.293 14.77,-113.742 68.219,-136.43 49.262,-20.902 108.809,-13.777 148.18,17.739 17.711,14.179 31.218,32.57 39.945,52.875 l -13.238,0 c -10.305,-20.567 -25.629,-38.024 -45.207,-50.246 -48.301,-30.161 -127.754,-28.043 -169.043,23.171 -39.953,49.551 -17.262,140.004 28.164,181.86 42.402,39.07 109.601,38.437 149.797,-1.414 l 3.289,-3.262 -4.578,0.715 -1.629,0.254 c -13.594,2.129 -27.653,4.328 -41.524,6.035 -2.691,0.328 -4.273,-1.477 -4.605,-3.293 -0.281,-1.566 0.324,-3.457 2.887,-4.078 13.32,-3.234 26.972,-6.07 40.179,-8.813 12.266,-2.55 24.957,-5.187 37.367,-8.136 2.52,-0.598 4.719,0.093 6.204,1.953 z" /></g></g></g></g></g><path
           inkscape:connector-curvature="0"
           id="path34"
           style="fill:#283d91;fill-opacity:1;fill-rule:nonzero;stroke:none"
           d="m 224.812,182.372 c 0.383,1.019 1.02,1.019 1.786,1.019 11.222,0 12.242,-14.922 12.242,-22.828 0,-10.332 -2.039,-18.363 -10.582,-25.125 -0.258,-0.254 -2.934,-2.039 -4.336,-2.039 l 0,5.484 0.89,43.489 z m -8.671,-92.844 c 0,-2.297 1.656,-3.063 3.445,-3.063 2.168,0 2.805,0.641 3.441,2.809 0.129,4.082 0.641,23.594 0.895,27.801 l 0.89,7.781 c 15.047,8.797 22.7,19 22.7,37.238 0,15.301 -8.035,29.074 -24.485,29.074 -1.785,0 -4.847,-1.019 -5.992,-2.55 -0.258,-14.918 -0.765,-83.786 -0.894,-98.578 l 0,-0.512 z M 151.102,94.5 c 0.507,-0.89 2.804,-1.785 3.57,-1.785 1.144,0 2.422,1.02 2.676,2.426 0.257,23.336 0.511,46.93 3.32,70.012 0.125,0 0.508,0 13.262,-28.949 1.91,-4.336 5.355,-0.383 6.121,1.277 1.148,2.551 6.375,13.008 7.523,14.918 2.68,5.742 5.738,11.223 8.801,16.707 -0.895,-23.082 0.129,-46.164 -0.383,-69.246 l -0.129,-7.528 c 0.641,-0.765 1.914,-1.785 2.934,-1.785 2.039,0 3.445,1.532 4.082,3.063 l 0.125,6.121 c 0.637,28.312 0.129,56.75 1.019,85.062 -1.656,1.274 -2.55,1.786 -4.335,1.914 -1.911,0 -2.93,-0.765 -3.696,-2.296 -3.062,-8.289 -6.25,-14.411 -10.969,-22.957 l -0.636,-1.02 c -2.551,-4.59 -7.399,-13.008 -8.289,-13.773 -7.524,10.714 -10.969,27.675 -13.266,36.984 -0.766,3.187 -3.699,3.57 -4.336,4.211 -0.125,0.125 -0.383,0.125 -0.512,0.125 -3.312,0 -4.972,-14.793 -5.48,-35.324 L 151.102,94.5 Z m -20.809,34.457 c 0.746,-0.75 1.66,-1.121 2.738,-1.121 1.328,0 2.43,0.496 3.301,1.496 0.871,0.997 1.723,2.118 2.555,3.36 -1.828,0.832 -3.364,1.371 -4.61,1.621 -1.246,0.25 -2.242,0.289 -2.988,0.125 -0.746,-0.168 -1.289,-0.5 -1.621,-0.996 -0.332,-0.5 -0.496,-1.121 -0.496,-1.867 0,-0.996 0.371,-1.871 1.121,-2.618 m 3.672,-28.644 c 0.043,-0.582 0.144,-1.121 0.312,-1.621 0.164,-0.496 0.414,-0.934 0.746,-1.309 0.332,-0.371 0.829,-0.558 1.497,-0.558 2.156,0 3.546,0.437 4.171,1.308 0.621,0.871 0.934,2.012 0.934,3.426 0,1.242 -0.293,2.383 -0.871,3.422 -0.582,1.039 -1.578,1.559 -2.988,1.559 -1.414,0 -2.411,-0.5 -2.993,-1.497 -0.582,-0.996 -0.871,-2.117 -0.871,-3.359 0,-0.336 0.02,-0.793 0.063,-1.371 m -20.535,41.805 c 1.535,-0.789 2.324,-1.68 2.367,-2.676 0.043,-0.996 -0.559,-1.977 -1.805,-2.93 -1.246,-0.953 -2.824,-1.785 -4.734,-2.488 -1.91,-0.707 -4.028,-1.227 -6.352,-1.559 -2.324,-0.332 -4.566,-0.375 -6.722,-0.125 -0.25,0.996 -0.024,2.18 0.683,3.551 0.703,1.371 1.574,2.656 2.613,3.859 1.04,1.204 2.161,2.2 3.364,2.993 1.203,0.785 2.179,1.179 2.929,1.179 3.567,-0.414 6.122,-1.015 7.657,-1.804 M 87.402,115.403 c 0.039,-2.488 0.27,-4.899 0.684,-7.223 0.414,-2.324 1.039,-4.504 1.871,-6.539 0.828,-2.035 1.906,-3.758 3.234,-5.168 1.329,-1.414 2.95,-2.41 4.86,-2.988 1.91,-0.582 4.152,-0.621 6.722,-0.125 0.5,0 1.415,0.082 2.743,0.25 1.328,0.164 2.757,0.371 4.296,0.621 1.536,0.25 2.989,0.519 4.36,0.809 1.371,0.292 2.387,0.519 3.051,0.687 0.082,0.082 0.289,0.27 0.621,0.559 0.332,0.293 0.664,0.625 0.996,1 0.332,0.371 0.625,0.761 0.875,1.179 0.246,0.414 0.371,0.789 0.371,1.121 -1.246,0 -2.824,-0.082 -4.731,-0.25 -1.914,-0.168 -3.945,-0.246 -6.101,-0.246 -2.16,0 -4.34,0.121 -6.539,0.371 -2.203,0.25 -4.172,0.746 -5.918,1.496 -1.742,0.747 -3.176,1.844 -4.297,3.301 -1.121,1.449 -1.68,3.34 -1.68,5.664 l 0,2.18 c 0,0.957 0.039,2.035 0.125,3.238 0.082,1.203 0.188,2.45 0.309,3.739 0.125,1.285 0.269,2.468 0.437,3.546 0.164,1.082 0.375,1.973 0.621,2.68 0.25,0.703 0.54,1.098 0.876,1.184 l 26.277,4.855 c 0.746,0.914 1.097,1.992 1.058,3.238 -0.043,1.247 -0.355,2.536 -0.933,3.864 -0.582,1.324 -1.391,2.594 -2.43,3.797 -1.039,1.203 -2.199,2.281 -3.488,3.238 -1.285,0.953 -2.613,1.723 -3.984,2.305 -1.372,0.578 -2.762,0.871 -4.172,0.871 -2.575,0 -5.043,-0.895 -7.411,-2.676 -2.367,-1.789 -4.484,-3.988 -6.351,-6.602 -1.867,-2.617 -3.344,-5.441 -4.422,-8.468 -1.078,-3.036 -1.617,-5.793 -1.617,-8.286 -0.25,-2.324 -0.356,-4.73 -0.313,-7.222 m -38.125,70.41 c 0,1.019 3.953,1.019 4.465,1.019 9.18,0 11.988,-14.027 11.988,-20.785 0,-8.035 -4.976,-17.984 -14.031,-19.769 l -2.422,39.535 z M 44.688,92.715 c 1.527,-2.422 5.101,-2.297 6.757,0 0.895,14.539 -0.254,29.078 1.149,43.489 0.254,0 1.148,0.128 1.273,0.128 14.797,0 17.219,-27.039 17.856,-36.601 0.636,-2.039 1.277,-2.039 2.804,-2.039 2.297,0 3.7,0.89 3.7,3.187 0,14.282 -3.571,35.071 -18.235,41.575 8.16,5.867 12.625,13.007 12.625,24.742 0,14.664 -6.25,27.289 -23.851,27.289 -2.551,0 -5.864,-0.766 -5.864,-3.699 l 0,-0.508 c 0.125,-1.403 0.891,-12.625 0.891,-13.903 0.254,-5.992 0.895,-29.203 0.895,-33.156 0.124,-7.652 0.124,-42.851 0,-50.504" /></g><g
         id="g36"><g
           clip-path="url(#clipPath40)"
           id="g38"><g
             transform="translate(0,-0.495636)"
             id="g44"><g
               id="g46"><g
                 clip-path="url(#clipPath50)"
                 id="g48"><g
                   id="g54" /></g></g></g></g></g><g
         id="g56"><g
           clip-path="url(#clipPath60)"
           id="g58"><g
             transform="translate(0,-0.495636)"
             id="g64"><g
               id="g66"><g
                 clip-path="url(#clipPath70)"
                 id="g68"><g
                   id="g74"><path
                     inkscape:connector-curvature="0"
                     id="path76"
                     style="fill:#ffffff;fill-opacity:1;fill-rule:nonzero;stroke:none"
                     d="m 251.453,184.504 -8.629,-98.602 36.242,-3.172 8.625,98.602 -36.238,3.172 z" /></g></g></g></g></g></g><g
         id="g78"><path
           inkscape:connector-curvature="0"
           id="path80"
           style="fill:#283d91;fill-opacity:1;fill-rule:nonzero;stroke:none"
           d="m 252.422,90.375 c 0,-3.656 7.062,-3.14 7.312,2.391 l 3.782,86.188 c 0,0.25 0.125,1.89 0.125,2.265 0,3.656 0,5.297 -3.657,5.297 -2.64,0 -3.281,-0.125 -4.156,-2.641 l -3.406,-93.5 z" /></g></g></g></svg>