<?xml version="1.0" encoding="UTF-8" standalone="no"?>
<!-- Created with Inkscape (http://www.inkscape.org/) -->

<svg
   xmlns:dc="http://purl.org/dc/elements/1.1/"
   xmlns:cc="http://creativecommons.org/ns#"
   xmlns:rdf="http://www.w3.org/1999/02/22-rdf-syntax-ns#"
   xmlns:svg="http://www.w3.org/2000/svg"
   xmlns="http://www.w3.org/2000/svg"
   xmlns:sodipodi="http://sodipodi.sourceforge.net/DTD/sodipodi-0.dtd"
   xmlns:inkscape="http://www.inkscape.org/namespaces/inkscape"
   id="svg2"
   version="1.1"
   inkscape:version="0.91 r13725"
   xml:space="preserve"
   width="319.06992"
   height="366.06613"
   viewBox="0 0 319.06992 366.06613"
   sodipodi:docname="rempi_logo1.svg"><metadata
     id="metadata8"><rdf:RDF><cc:Work
         rdf:about=""><dc:format>image/svg+xml</dc:format><dc:type
           rdf:resource="http://purl.org/dc/dcmitype/StillImage" /><dc:title /></cc:Work></rdf:RDF></metadata><defs
     id="defs6"><clipPath
       clipPathUnits="userSpaceOnUse"
       id="clipPath18"><path
         d="m 0,0 841.89,0 0,595.276 L 0,595.276 0,0 Z"
         id="path20"
         inkscape:connector-curvature="0" /></clipPath></defs><sodipodi:namedview
     pagecolor="#ffffff"
     bordercolor="#666666"
     borderopacity="1"
     objecttolerance="10"
     gridtolerance="10"
     guidetolerance="10"
     inkscape:pageopacity="0"
     inkscape:pageshadow="2"
     inkscape:window-width="1280"
     inkscape:window-height="682"
     id="namedview4"
     showgrid="false"
     fit-margin-top="0"
     fit-margin-left="0"
     fit-margin-right="0"
     fit-margin-bottom="0"
     inkscape:zoom="0.52155389"
     inkscape:cx="172.97449"
     inkscape:cy="245.22566"
     inkscape:window-x="0"
     inkscape:window-y="1"
     inkscape:window-maximized="1"
     inkscape:current-layer="g10" /><g
     id="g10"
     inkscape:groupmode="layer"
     inkscape:label="logo1"
     transform="matrix(1.25,0,0,-1.25,-113.76134,544.90138)"><g
       id="g3341"><g
         id="g12" /><path
         inkscape:connector-curvature="0"
         id="path22"
         style="fill:#2a3e92;fill-opacity:1;fill-rule:nonzero;stroke:none"
         d="m 346.265,326.795 -12.243,0 0,-13.008 12.243,0 0,13.008 z m 0,-17.855 -12.243,0 0,-91.372 12.243,0 0,91.372 z m -41.575,7.015 2.423,0 c 4.591,0 5.866,-2.423 5.866,-8.672 l 0,-21.553 c 0,-4.081 -4.336,-4.081 -8.289,-4.081 l 0,34.306 z m 21.807,-6.887 c 0,13.263 -7.141,17.727 -21.17,17.727 l -14.156,0 0,-90.802 13.519,0 0,34.816 5.612,0 c 10.457,0 16.195,6.121 16.195,18.619 l 0,19.64 z m -64.018,-73.075 4.718,39.152 c 0.51,4.845 2.551,28.184 3.317,34.943 l 0.509,0 c -0.381,-11.478 -0.509,-21.552 -0.509,-32.266 l 0,-41.829 11.859,0 0,90.802 -20.022,0 -3.698,-37.622 c -0.765,-7.27 -0.892,-18.747 -1.276,-28.185 l -0.637,0 c -0.128,11.479 -1.403,22.701 -2.168,28.313 l -4.336,37.494 -20.023,0 0,-90.802 11.861,0 0,56.368 c 0,5.484 -0.383,12.243 -0.51,17.727 l 0.51,0 c 0.892,-7.779 2.168,-21.042 3.189,-30.353 l 4.845,-43.742 12.371,0 z m -41.701,66.443 -12.753,0 0,-14.156 12.753,0 0,14.156 z m 0,-52.287 -12.753,0 0,-14.155 12.753,0 0,14.155 z m -32.393,29.204 -5.866,0 0,17.982 c 0,3.316 1.148,3.571 2.933,3.571 1.785,0 2.933,-0.255 2.933,-3.571 l 0,-17.982 z m 0,-14.666 0,-17.089 c 0,-3.317 -1.148,-3.572 -2.933,-3.572 -1.785,0 -2.933,0.255 -2.933,3.572 l 0,23.211 18.109,0 0,26.781 c 0,7.525 -5.866,12.243 -15.176,12.243 -9.31,0 -15.176,-4.718 -15.176,-12.243 l 0,-50.247 c 0,-7.525 5.866,-12.243 15.176,-12.243 9.31,0 15.176,4.718 15.176,12.243 l 0,17.344 -12.243,0 z m -46.675,51.268 3.188,0 c 3.061,0 5.101,-1.021 5.101,-4.464 l 0,-16.451 c 0,-3.316 -1.02,-5.867 -5.738,-5.867 l -2.551,0 0,26.782 z m 0,-79.962 0,42.085 c 6.249,0.255 8.289,-1.913 8.289,-7.397 0,-10.585 -0.637,-24.23 1.658,-34.688 l 13.519,0 c -2.168,12.497 -1.403,25.251 -2.168,37.366 -0.511,8.29 -6.887,10.33 -12.881,11.096 l 0,0.255 c 11.478,1.275 13.391,6.886 13.391,13.645 l 0,12.881 c 0,11.733 -6.632,15.559 -17.472,15.559 l -17.854,0 0,-90.802 13.518,0 z" /><path
         inkscape:connector-curvature="0"
         id="path24"
         style="fill:#464344;fill-opacity:1;fill-rule:nonzero;stroke:none"
         d="m 228.0044,381.9561 53.313,15.576 -40.141,38.389 -13.172,-53.965 z" /><g
         transform="translate(339.3842,215.2286)"
         id="g34"><path
           inkscape:connector-curvature="0"
           id="path36"
           style="fill:none;stroke:#464344;stroke-width:12.30000019;stroke-linecap:butt;stroke-linejoin:miter;stroke-miterlimit:10;stroke-dasharray:none;stroke-opacity:1"
           d="m 0,0 c -31.029,-55.363 -98.866,-80.848 -159.713,-57.186 -66.603,25.902 -99.6,100.889 -73.695,167.503 21.973,56.505 79.289,88.822 136.837,81.499" /></g><path
         inkscape:connector-curvature="0"
         id="path38"
         style="fill:#464344;fill-opacity:1;fill-rule:nonzero;stroke:none"
         d="m 344.749,211.748 -11.111,5.82 12.627,0 c 0,0 0,-2.91 -1.516,-5.82" /></g></g></svg>