<?xml version="1.0" encoding="UTF-8" standalone="no"?>
<!-- Created with Inkscape (http://www.inkscape.org/) -->

<svg
   xmlns:dc="http://purl.org/dc/elements/1.1/"
   xmlns:cc="http://creativecommons.org/ns#"
   xmlns:rdf="http://www.w3.org/1999/02/22-rdf-syntax-ns#"
   xmlns:svg="http://www.w3.org/2000/svg"
   xmlns="http://www.w3.org/2000/svg"
   xmlns:sodipodi="http://sodipodi.sourceforge.net/DTD/sodipodi-0.dtd"
   xmlns:inkscape="http://www.inkscape.org/namespaces/inkscape"
   id="svg3406"
   version="1.1"
   inkscape:version="0.91 r13725"
   xml:space="preserve"
   width="35.522461"
   height="62.441097"
   viewBox="0 0 35.522461 62.441097"
   sodipodi:docname="favicon.svg"><metadata
     id="metadata3412"><rdf:RDF><cc:Work
         rdf:about=""><dc:format>image/svg+xml</dc:format><dc:type
           rdf:resource="http://purl.org/dc/dcmitype/StillImage" /><dc:title></dc:title></cc:Work></rdf:RDF></metadata><defs
     id="defs3410" /><sodipodi:namedview
     pagecolor="#ffffff"
     bordercolor="#ffffff"
     borderopacity="0"
     objecttolerance="10"
     gridtolerance="10"
     guidetolerance="10"
     inkscape:pageopacity="0"
     inkscape:pageshadow="2"
     inkscape:window-width="1920"
     inkscape:window-height="1081"
     id="namedview3408"
     showgrid="false"
     inkscape:zoom="3.77"
     inkscape:cx="91.114179"
     inkscape:cy="54.260117"
     inkscape:window-x="0"
     inkscape:window-y="1"
     inkscape:window-maximized="1"
     inkscape:current-layer="g3414"
     fit-margin-top="0"
     fit-margin-left="0"
     fit-margin-right="0"
     fit-margin-bottom="0" /><g
     id="g3414"
     inkscape:groupmode="layer"
     inkscape:label="PRUNERS Logo"
     transform="matrix(1.25,0,0,-1.25,-289.11063,426.88125)"><g
       id="g3336"><path
         inkscape:connector-curvature="0"
         id="path3471"
         d="m 242.12834,312.10031 q -0.96679,0 -1.90429,0.0293 -0.9375,0.0293 -1.75782,0.11719 l 0,-15.32227 -7.17773,0 0,39.19922 11.30859,0 q 2.8418,0 4.95118,-0.26367 2.13867,-0.23438 3.80859,-0.73243 4.01367,-1.23046 6.18164,-3.92578 2.16797,-2.69531 2.16797,-6.85547 0,-2.84179 -1.17188,-5.12695 -1.17187,-2.25586 -3.42773,-3.83789 -2.25586,-1.58203 -5.50781,-2.43164 -3.25196,-0.84961 -7.47071,-0.84961 z m -3.66211,6.18164 q 0.61524,-0.0879 1.55274,-0.14648 0.9668,-0.0293 1.99219,-0.0293 2.90039,0 4.86328,0.46875 1.96289,0.46875 3.16406,1.28906 1.20117,0.84961 1.72852,2.02148 0.52734,1.20117 0.52734,2.60742 0,1.72852 -0.79102,2.98829 -0.79101,1.25976 -2.7539,1.96289 -1.02539,0.35156 -2.54883,0.49804 -1.49414,0.17578 -3.69141,0.17578 l -4.04297,0 0,-11.83593 z"
         style="font-variant:normal;font-weight:bold;font-size:medium;font-family:Corbel;-inkscape-font-specification:Corbel-Bold;writing-mode:lr-tb;fill:#d3430a;fill-opacity:1;fill-rule:nonzero;stroke:none" /><path
         inkscape:export-ydpi="179.89"
         inkscape:export-xdpi="179.89"
         d="m 231.2886,293.05252 28.4176,-8.1e-4"
         style="fill:none;stroke:#aa5b02;stroke-width:2.99918389;stroke-linecap:butt;stroke-linejoin:round;stroke-miterlimit:10;stroke-dasharray:none;stroke-opacity:1"
         id="path3436"
         inkscape:connector-curvature="0" /><path
         inkscape:export-ydpi="179.89"
         inkscape:export-xdpi="179.89"
         d="m 231.2886,340.00536 28.4176,-8.1e-4"
         style="fill:none;stroke:#aa5b02;stroke-width:2.9992733;stroke-linecap:butt;stroke-linejoin:round;stroke-miterlimit:10;stroke-dasharray:none;stroke-opacity:1"
         id="path3440"
         inkscape:connector-curvature="0" /></g></g></svg>