<?xml version="1.0" encoding="UTF-8" standalone="no"?>
<!-- Created with Inkscape (http://www.inkscape.org/) -->

<svg
   xmlns:dc="http://purl.org/dc/elements/1.1/"
   xmlns:cc="http://creativecommons.org/ns#"
   xmlns:rdf="http://www.w3.org/1999/02/22-rdf-syntax-ns#"
   xmlns:svg="http://www.w3.org/2000/svg"
   xmlns="http://www.w3.org/2000/svg"
   xmlns:sodipodi="http://sodipodi.sourceforge.net/DTD/sodipodi-0.dtd"
   xmlns:inkscape="http://www.inkscape.org/namespaces/inkscape"
   id="svg2"
   version="1.1"
   inkscape:version="0.91 r13725"
   xml:space="preserve"
   width="222.5"
   height="56.25"
   viewBox="0 0 222.5 56.25"
   sodipodi:docname="uofu_logo.svg"><metadata
     id="metadata8"><rdf:RDF><cc:Work
         rdf:about=""><dc:format>image/svg+xml</dc:format><dc:type
           rdf:resource="http://purl.org/dc/dcmitype/StillImage" /><dc:title></dc:title></cc:Work></rdf:RDF></metadata><defs
     id="defs6"><clipPath
       clipPathUnits="userSpaceOnUse"
       id="clipPath18"><path
         d="M 0,442.031 0,0 l 1774.49,0 0,442.031 -1774.49,0 z"
         id="path20"
         inkscape:connector-curvature="0" /></clipPath></defs><sodipodi:namedview
     pagecolor="#ffffff"
     bordercolor="#666666"
     borderopacity="1"
     objecttolerance="10"
     gridtolerance="10"
     guidetolerance="10"
     inkscape:pageopacity="0"
     inkscape:pageshadow="2"
     inkscape:window-width="1507"
     inkscape:window-height="919"
     id="namedview4"
     showgrid="false"
     inkscape:zoom="1.4741573"
     inkscape:cx="111.25"
     inkscape:cy="28.125"
     inkscape:window-x="0"
     inkscape:window-y="0"
     inkscape:window-maximized="0"
     inkscape:current-layer="g10" /><g
     id="g10"
     inkscape:groupmode="layer"
     inkscape:label="uofu_logo"
     transform="matrix(1.25,0,0,-1.25,0,56.25)"><g
       id="g12"
       transform="scale(0.1,0.1)"><g
         id="g14"><g
           id="g16"
           clip-path="url(#clipPath18)"><path
             d="m 0,440.055 0,-131.836 43.957,0 0,-219.1995 87.906,-87.33591 218.625,0 87.871,87.33591 0,219.1995 43.985,0 0,131.836 -219.219,0 0,-131.836 43.984,0 0,-174.688 -131.855,0 0,174.688 43.945,0 0,131.836 -219.199,0 0,0"
             style="fill:#c4122e;fill-opacity:1;fill-rule:nonzero;stroke:none"
             id="path22"
             inkscape:connector-curvature="0" /><path
             d="m 574.062,434.828 -15.335,-0.41 c -5.969,-0.203 -8.438,-0.723 -9.981,-2.984 -1.031,-1.547 -1.543,-2.778 -1.75,-3.602 -0.211,-0.824 -0.516,-1.234 -1.133,-1.234 -0.722,0 -0.925,0.511 -0.925,1.644 0,1.645 1.957,11.012 2.164,11.836 0.304,1.336 0.613,1.953 1.234,1.953 0.82,0 1.852,-1.027 4.422,-1.23 2.984,-0.313 6.894,-0.52 10.289,-0.52 l 40.758,0 c 6.586,0 9.05,1.031 9.879,1.031 0.714,0 0.824,-0.621 0.824,-2.164 0,-2.156 -0.313,-9.261 -0.313,-11.937 -0.101,-1.023 -0.308,-1.645 -0.925,-1.645 -0.825,0 -1.028,0.516 -1.129,2.059 l -0.106,1.133 c -0.203,2.676 -2.98,5.558 -12.14,5.762 l -12.969,0.308 0,-42.191 c 0,-9.469 0,-17.598 0.515,-22.024 0.309,-2.883 0.922,-5.144 4.008,-5.558 1.446,-0.207 3.707,-0.41 5.25,-0.41 1.133,0 1.653,-0.309 1.653,-0.821 0,-0.722 -0.829,-1.031 -1.961,-1.031 -6.789,0 -13.278,0.309 -16.157,0.309 -2.367,0 -8.847,-0.309 -12.964,-0.309 -1.336,0 -2.059,0.309 -2.059,1.031 0,0.512 0.41,0.821 1.644,0.821 1.543,0 2.778,0.203 3.707,0.41 2.059,0.414 2.676,2.675 2.985,5.664 0.515,4.32 0.515,12.449 0.515,21.918 l 0,42.191"
             style="fill:#231f20;fill-opacity:1;fill-rule:nonzero;stroke:none"
             id="path24"
             inkscape:connector-curvature="0" /><path
             d="m 691.379,407.867 c 0.305,0 0.617,0.203 0.617,0.723 l 0,2.156 c 0,15.645 0,18.527 -0.211,21.816 -0.203,3.5 -1.023,5.149 -4.422,5.872 -0.82,0.203 -2.574,0.304 -4.011,0.304 -1.133,0 -1.75,0.207 -1.75,0.93 0,0.719 0.718,0.922 2.16,0.922 5.554,0 12.039,-0.309 14.816,-0.309 2.473,0 8.957,0.309 12.969,0.309 1.441,0 2.164,-0.203 2.164,-0.922 0,-0.723 -0.621,-0.93 -1.856,-0.93 -0.82,0 -1.75,-0.101 -2.984,-0.304 -2.777,-0.52 -3.601,-2.266 -3.809,-5.872 -0.203,-3.289 -0.203,-6.171 -0.203,-21.816 l 0,-18.109 c 0,-9.469 0,-17.598 0.512,-22.024 0.313,-2.883 0.93,-5.144 4.016,-5.558 1.437,-0.207 3.703,-0.41 5.246,-0.41 1.133,0 1.652,-0.309 1.652,-0.821 0,-0.722 -0.824,-1.031 -2.062,-1.031 -6.688,0 -13.172,0.309 -16.055,0.309 -2.367,0 -8.852,-0.309 -12.859,-0.309 -1.442,0 -2.164,0.309 -2.164,1.031 0,0.512 0.41,0.821 1.644,0.821 1.543,0 2.777,0.203 3.707,0.41 2.055,0.414 2.574,2.675 2.984,5.664 0.516,4.32 0.516,12.449 0.516,21.918 l 0,9.058 c 0,0.41 -0.312,0.614 -0.617,0.614 l -39.313,0 c -0.308,0 -0.617,-0.102 -0.617,-0.614 l 0,-9.058 c 0,-9.469 0,-17.598 0.516,-22.024 0.305,-2.883 0.926,-5.144 4.012,-5.558 1.441,-0.207 3.707,-0.41 5.25,-0.41 1.132,0 1.644,-0.309 1.644,-0.821 0,-0.722 -0.824,-1.031 -2.059,-1.031 -6.691,0 -13.171,0.309 -16.05,0.309 -2.367,0 -8.856,-0.309 -12.969,-0.309 -1.34,0 -2.063,0.309 -2.063,1.031 0,0.512 0.415,0.821 1.653,0.821 1.543,0 2.777,0.203 3.699,0.41 2.063,0.414 2.574,2.675 2.988,5.664 0.516,4.32 0.516,12.449 0.516,21.918 l 0,18.109 c 0,15.645 0,18.527 -0.207,21.816 -0.203,3.5 -1.031,5.149 -4.426,5.872 -0.824,0.203 -2.57,0.304 -4.012,0.304 -1.132,0 -1.753,0.207 -1.753,0.93 0,0.719 0.722,0.922 2.164,0.922 5.554,0 12.043,-0.309 14.82,-0.309 2.469,0 8.949,0.309 12.965,0.309 1.441,0 2.16,-0.203 2.16,-0.922 0,-0.723 -0.613,-0.93 -1.852,-0.93 -0.824,0 -1.75,-0.101 -2.984,-0.304 -2.781,-0.52 -3.602,-2.266 -3.805,-5.872 -0.207,-3.289 -0.207,-6.171 -0.207,-21.816 l 0,-2.156 c 0,-0.52 0.309,-0.723 0.617,-0.723 l 39.313,0"
             style="fill:#231f20;fill-opacity:1;fill-rule:nonzero;stroke:none"
             id="path26"
             inkscape:connector-curvature="0" /><path
             d="m 743.754,410.746 c 0,15.645 0,18.527 -0.203,21.816 -0.207,3.5 -1.031,5.149 -4.426,5.872 -0.824,0.203 -2.57,0.304 -4.012,0.304 -1.133,0 -1.75,0.207 -1.75,0.93 0,0.719 0.719,0.922 2.262,0.922 5.453,0 11.937,-0.309 14.82,-0.309 3.293,0 23.774,0 25.727,0.106 1.957,0.203 3.601,0.414 4.43,0.617 0.511,0.105 1.128,0.41 1.644,0.41 0.512,0 0.613,-0.41 0.613,-0.926 0,-0.718 -0.511,-1.953 -0.816,-6.691 -0.105,-1.024 -0.313,-5.555 -0.52,-6.789 -0.101,-0.516 -0.308,-1.133 -1.027,-1.133 -0.723,0 -0.926,0.516 -0.926,1.445 0,0.715 -0.101,2.465 -0.621,3.7 -0.719,1.855 -1.746,3.089 -6.894,3.707 -1.746,0.203 -12.551,0.41 -14.614,0.41 -0.511,0 -0.718,-0.309 -0.718,-1.028 l 0,-26.039 c 0,-0.718 0.101,-1.132 0.718,-1.132 2.266,0 14.102,0 16.469,0.21 2.469,0.204 4.016,0.512 4.938,1.543 0.722,0.821 1.132,1.336 1.648,1.336 0.41,0 0.719,-0.203 0.719,-0.824 0,-0.613 -0.512,-2.265 -0.824,-7.508 -0.203,-2.062 -0.411,-6.179 -0.411,-6.902 0,-0.82 0,-1.953 -0.925,-1.953 -0.719,0 -0.926,0.41 -0.926,0.93 -0.102,1.023 -0.102,2.363 -0.414,3.699 -0.512,2.062 -1.953,3.605 -5.762,4.015 -1.953,0.211 -12.144,0.313 -14.613,0.313 -0.516,0 -0.617,-0.414 -0.617,-1.031 l 0,-8.129 c 0,-3.5 -0.102,-12.969 0,-15.953 0.207,-7.098 1.851,-8.641 12.347,-8.641 2.676,0 7,0 9.676,1.234 2.676,1.235 3.91,3.395 4.633,7.614 0.207,1.132 0.41,1.543 1.133,1.543 0.82,0 0.82,-0.821 0.82,-1.852 0,-2.367 -0.82,-9.367 -1.34,-11.422 -0.715,-2.676 -1.644,-2.676 -5.554,-2.676 -15.54,0 -22.438,0.618 -28.504,0.618 -2.372,0 -8.856,-0.309 -12.969,-0.309 -1.34,0 -2.059,0.309 -2.059,1.031 0,0.512 0.41,0.821 1.649,0.821 1.543,0 2.777,0.203 3.703,0.41 2.054,0.414 2.574,2.675 2.984,5.664 0.512,4.32 0.512,12.449 0.512,21.918 l 0,18.109"
             style="fill:#231f20;fill-opacity:1;fill-rule:nonzero;stroke:none"
             id="path28"
             inkscape:connector-curvature="0" /><path
             d="m 564.078,262.422 c 0,26.758 0,31.558 -0.344,37.047 -0.339,5.828 -1.714,8.578 -7.379,9.773 -1.367,0.348 -4.285,0.52 -5.828,0.52 -0.683,0 -1.371,0.34 -1.371,1.027 0,1.027 0.86,1.375 2.742,1.375 7.719,0 18.184,-0.519 19.727,-0.519 1.543,0 11.836,0.519 16.98,0.519 1.887,0 2.743,-0.348 2.743,-1.375 0,-0.687 -0.684,-1.027 -1.371,-1.027 -1.2,0 -2.227,-0.172 -4.289,-0.52 -4.629,-0.683 -6,-3.769 -6.34,-9.773 C 579,293.98 579,289.18 579,262.422 l 0,-24.016 c 0,-24.695 5.488,-35.332 12.863,-42.359 8.407,-7.895 16.125,-9.438 25.903,-9.438 10.461,0 20.75,4.973 26.925,12.352 7.891,9.773 9.95,24.355 9.95,42.019 l 0,21.442 c 0,26.758 0,31.558 -0.344,37.047 -0.344,5.828 -1.715,8.578 -7.371,9.773 -1.375,0.348 -4.293,0.52 -5.836,0.52 -0.684,0 -1.371,0.34 -1.371,1.027 0,1.027 0.855,1.375 2.742,1.375 7.719,0 17.152,-0.519 18.184,-0.519 1.203,0 9.261,0.519 14.406,0.519 1.887,0 2.742,-0.348 2.742,-1.375 0,-0.687 -0.684,-1.027 -1.371,-1.027 -1.195,0 -2.227,0 -4.289,-0.52 -4.629,-0.855 -6,-3.769 -6.34,-9.773 -0.348,-5.489 -0.348,-10.289 -0.348,-37.047 l 0,-18.356 c 0,-18.523 -2.054,-39.105 -15.777,-51.285 -12.356,-10.976 -25.215,-12.687 -35.336,-12.687 -5.832,0 -23.156,0.683 -35.332,12.176 -8.402,8.062 -14.922,20.07 -14.922,45.109 l 0,25.043"
             style="fill:#231f20;fill-opacity:1;fill-rule:nonzero;stroke:none"
             id="path30"
             inkscape:connector-curvature="0" /><path
             d="m 729.59,205.82 c 0.344,-14.066 2.058,-18.523 6.687,-19.898 3.258,-0.86 7.035,-1.031 8.578,-1.031 0.86,0 1.372,-0.34 1.372,-1.024 0,-1.031 -1.028,-1.371 -3.086,-1.371 -9.778,0 -16.637,0.512 -18.18,0.512 -1.547,0 -8.75,-0.512 -16.469,-0.512 -1.715,0 -2.746,0.168 -2.746,1.371 0,0.684 0.52,1.024 1.371,1.024 1.375,0 4.465,0.171 7.039,1.031 4.285,1.203 5.141,6.176 5.141,21.781 l 0.176,98.281 c 0,6.692 0.511,8.575 1.882,8.575 1.375,0 4.29,-3.77 6.004,-5.489 2.575,-2.914 28.129,-30.523 54.543,-58.828 16.981,-18.183 35.676,-39.105 41.164,-44.765 l -1.882,87.128 c -0.172,11.149 -1.375,14.922 -6.692,16.297 -3.086,0.688 -7.031,0.86 -8.402,0.86 -1.203,0 -1.371,0.511 -1.371,1.199 0,1.027 1.371,1.203 3.426,1.203 7.718,0 15.953,-0.519 17.835,-0.519 1.891,0 7.551,0.519 14.582,0.519 1.887,0 3.086,-0.176 3.086,-1.203 0,-0.688 -0.683,-1.199 -1.886,-1.199 -0.86,0 -2.055,0 -4.117,-0.52 -5.657,-1.195 -6.344,-4.969 -6.344,-15.262 l -0.344,-100.507 c 0,-11.325 -0.344,-12.18 -1.543,-12.18 -1.371,0 -3.434,1.887 -12.519,10.977 -1.891,1.714 -26.586,26.929 -44.766,46.48 -19.899,21.441 -39.281,43.051 -44.77,49.227 l 2.231,-82.157"
             style="fill:#231f20;fill-opacity:1;fill-rule:nonzero;stroke:none"
             id="path32"
             inkscape:connector-curvature="0" /><path
             d="m 910.367,232.23 c 0,-16.464 0,-30.011 0.86,-37.214 0.511,-4.977 1.543,-8.75 6.687,-9.434 2.398,-0.344 6.18,-0.691 7.723,-0.691 1.023,0 1.367,-0.512 1.367,-1.024 0,-0.859 -0.859,-1.371 -2.746,-1.371 -9.434,0 -20.235,0.512 -21.094,0.512 -0.859,0 -11.664,-0.512 -16.812,-0.512 -1.883,0 -2.743,0.34 -2.743,1.371 0,0.512 0.344,1.024 1.371,1.024 1.547,0 3.606,0.347 5.149,0.691 3.43,0.684 4.285,4.457 4.973,9.434 0.859,7.203 0.859,20.75 0.859,37.214 l 0,30.192 c 0,26.758 0,31.558 -0.348,37.047 -0.34,5.828 -2.054,8.75 -5.828,9.601 -1.887,0.52 -4.117,0.692 -5.316,0.692 -0.684,0 -1.371,0.34 -1.371,1.027 0,1.027 0.855,1.375 2.742,1.375 5.66,0 16.465,-0.519 17.324,-0.519 0.859,0 11.66,0.519 16.809,0.519 1.882,0 2.742,-0.348 2.742,-1.375 0,-0.687 -0.684,-1.027 -1.367,-1.027 -1.203,0 -2.239,-0.172 -4.293,-0.52 -4.629,-0.855 -6,-3.769 -6.348,-9.773 -0.34,-5.489 -0.34,-10.289 -0.34,-37.047 l 0,-30.192"
             style="fill:#231f20;fill-opacity:1;fill-rule:nonzero;stroke:none"
             id="path34"
             inkscape:connector-curvature="0" /><path
             d="m 1017.22,203.418 c 9.95,22.984 32.94,82.844 36.71,95.195 0.86,2.567 1.54,4.973 1.54,6.516 0,1.371 -0.52,3.09 -2.23,3.941 -2.06,0.692 -4.64,0.692 -6.52,0.692 -1.03,0 -1.89,0.168 -1.89,1.027 0,1.027 1.03,1.375 3.77,1.375 6.87,0 14.76,-0.519 16.82,-0.519 1.03,0 8.4,0.519 13.38,0.519 1.88,0 2.91,-0.348 2.91,-1.203 0,-0.859 -0.68,-1.199 -2.06,-1.199 -1.19,0 -4.97,0 -8.23,-2.063 -2.23,-1.543 -4.8,-4.457 -9.44,-16.121 -1.88,-4.801 -10.46,-25.383 -19.21,-46.48 -10.46,-25.043 -18.17,-43.567 -22.12,-51.973 -4.8,-10.289 -5.48,-13.031 -7.2,-13.031 -2.06,0 -2.92,2.402 -6.17,10.633 l -42.026,105.14 c -3.777,9.606 -6.348,11.492 -12.356,13.203 -2.566,0.692 -5.488,0.692 -6.511,0.692 -1.035,0 -1.375,0.511 -1.375,1.199 0,1.027 1.718,1.203 4.461,1.203 8.23,0 18.007,-0.519 20.07,-0.519 1.707,0 9.434,0.519 15.945,0.519 3.086,0 4.629,-0.348 4.629,-1.203 0,-0.859 -0.508,-1.199 -1.711,-1.199 -1.89,0 -4.976,-0.172 -6.519,-0.86 -1.887,-0.855 -2.231,-2.226 -2.231,-3.429 0,-2.231 2.063,-7.547 4.629,-14.239 l 32.935,-87.816"
             style="fill:#231f20;fill-opacity:1;fill-rule:nonzero;stroke:none"
             id="path36"
             inkscape:connector-curvature="0" /><path
             d="m 1115.84,262.422 c 0,26.758 0,31.558 -0.34,37.047 -0.34,5.828 -1.72,8.578 -7.37,9.773 -1.38,0.348 -4.29,0.52 -5.84,0.52 -0.69,0 -1.37,0.34 -1.37,1.027 0,1.027 0.86,1.375 2.74,1.375 7.72,0 18.53,-0.519 19.39,-0.519 1.2,0 35.33,0 39.27,0.171 3.26,0.172 6.01,0.52 7.38,0.86 0.86,0.172 1.54,0.859 2.4,0.859 0.52,0 0.68,-0.687 0.68,-1.547 0,-1.199 -0.86,-3.258 -1.36,-8.058 -0.18,-1.719 -0.52,-9.262 -0.86,-11.325 -0.18,-0.859 -0.52,-1.882 -1.2,-1.882 -1.03,0 -1.38,0.855 -1.38,2.226 0,1.199 -0.17,4.117 -1.03,6.176 -1.2,2.746 -2.92,4.805 -12.17,5.832 -2.92,0.34 -21.62,0.516 -23.5,0.516 -0.68,0 -1.04,-0.516 -1.04,-1.719 l 0,-47.34 c 0,-1.199 0.18,-1.711 1.04,-1.711 2.23,0 23.32,0 27.26,0.34 4.13,0.348 6.53,0.687 8.07,2.402 1.2,1.371 1.89,2.231 2.57,2.231 0.52,0 0.86,-0.344 0.86,-1.371 0,-1.032 -0.86,-3.946 -1.37,-9.606 -0.34,-3.429 -0.69,-9.777 -0.69,-10.98 0,-1.371 0,-3.254 -1.2,-3.254 -0.85,0 -1.2,0.687 -1.2,1.543 0,1.711 0,3.43 -0.69,5.656 -0.68,2.402 -2.22,5.316 -8.91,6.008 -4.63,0.512 -21.61,0.851 -24.53,0.851 -0.85,0 -1.21,-0.511 -1.21,-1.195 l 0,-15.098 c 0,-5.828 -0.16,-25.726 0,-29.324 0.52,-11.836 3.1,-14.066 19.91,-14.066 4.45,0 12,0 16.46,1.887 4.46,1.886 6.52,5.32 7.72,12.347 0.34,1.887 0.68,2.574 1.54,2.574 1.03,0 1.03,-1.371 1.03,-2.574 0,-1.371 -1.37,-13.035 -2.23,-16.633 -1.2,-4.464 -2.57,-4.464 -9.26,-4.464 -25.9,0 -37.39,1.031 -42.36,1.031 -0.34,0 -3.26,-0.172 -6.87,-0.172 -3.43,-0.172 -7.37,-0.34 -9.94,-0.34 -1.89,0 -2.75,0.34 -2.75,1.371 0,0.512 0.35,1.024 1.37,1.024 1.55,0 3.61,0.347 5.15,0.691 3.43,0.684 4.29,4.457 4.97,9.434 0.86,7.203 0.86,20.75 0.86,37.214 l 0,30.192"
             style="fill:#231f20;fill-opacity:1;fill-rule:nonzero;stroke:none"
             id="path38"
             inkscape:connector-curvature="0" /><path
             d="m 1242.76,247.5 c 0,-0.859 0.35,-1.543 1.2,-2.062 2.57,-1.543 10.46,-2.743 18.01,-2.743 4.11,0 8.92,0.52 12.86,3.262 6.01,4.117 10.46,13.375 10.46,26.41 0,21.442 -11.32,34.309 -29.66,34.309 -5.15,0 -9.78,-0.52 -11.5,-1.031 -0.86,-0.348 -1.37,-1.032 -1.37,-2.059 l 0,-56.086 z m -13.72,14.922 c 0,26.758 0,31.558 -0.34,37.047 -0.35,5.828 -1.72,8.578 -7.38,9.773 -1.37,0.348 -4.29,0.52 -5.83,0.52 -0.69,0 -1.37,0.34 -1.37,1.027 0,1.027 0.85,1.375 2.75,1.375 7.71,0 18.51,-0.519 19.37,-0.519 1.89,0 14.92,0.519 20.24,0.519 10.81,0 22.3,-1.031 31.39,-7.551 4.29,-3.086 11.84,-11.492 11.84,-23.324 0,-12.695 -5.33,-25.387 -20.75,-39.625 14.06,-18.008 25.72,-33.269 35.67,-43.906 9.26,-9.774 16.63,-11.664 20.93,-12.348 3.25,-0.519 5.65,-0.519 6.69,-0.519 0.85,0 1.54,-0.512 1.54,-1.024 0,-1.031 -1.04,-1.371 -4.12,-1.371 l -12.18,0 c -9.61,0 -13.9,0.852 -18.35,3.258 -7.37,3.941 -13.38,12.348 -23.15,25.215 -7.21,9.429 -15.27,20.922 -18.7,25.379 -0.69,0.687 -1.21,1.031 -2.23,1.031 l -21.1,0.34 c -0.85,0 -1.2,-0.512 -1.2,-1.371 l 0,-4.118 c 0,-16.464 0,-30.011 0.86,-37.214 0.51,-4.977 1.55,-8.75 6.68,-9.434 2.41,-0.344 6.18,-0.691 7.73,-0.691 1.02,0 1.36,-0.512 1.36,-1.024 0,-0.859 -0.85,-1.371 -2.74,-1.371 -9.43,0 -20.23,0.512 -21.09,0.512 -0.18,0 -10.98,-0.512 -16.13,-0.512 -1.88,0 -2.74,0.34 -2.74,1.371 0,0.512 0.34,1.024 1.38,1.024 1.54,0 3.59,0.347 5.13,0.691 3.44,0.684 4.3,4.457 4.98,9.434 0.86,7.203 0.86,20.75 0.86,37.214 l 0,30.192"
             style="fill:#231f20;fill-opacity:1;fill-rule:nonzero;stroke:none"
             id="path40"
             inkscape:connector-curvature="0" /><path
             d="m 1354.29,184.723 c -2.41,1.199 -2.58,1.886 -2.58,6.515 0,8.574 0.69,15.438 0.86,18.188 0.17,1.883 0.52,2.742 1.38,2.742 1.02,0 1.2,-0.52 1.2,-1.891 0,-1.543 0,-3.945 0.5,-6.347 2.58,-12.692 13.9,-17.489 25.39,-17.489 16.47,0 24.53,11.829 24.53,22.805 0,11.84 -4.97,18.699 -19.72,30.875 l -7.72,6.348 c -18.18,14.922 -22.3,25.558 -22.3,37.219 0,18.351 13.72,30.871 35.51,30.871 6.69,0 11.66,-0.68 15.95,-1.711 3.26,-0.684 4.62,-0.86 6,-0.86 1.37,0 1.71,-0.343 1.71,-1.199 0,-0.859 -0.68,-6.516 -0.68,-18.184 0,-2.742 -0.35,-3.945 -1.2,-3.945 -1.03,0 -1.21,0.86 -1.37,2.235 -0.18,2.054 -1.2,6.687 -2.24,8.574 -1.02,1.886 -5.65,9.09 -21.43,9.09 -11.84,0 -21.1,-7.379 -21.1,-19.899 0,-9.773 4.8,-15.605 20.92,-28.812 l 4.81,-3.774 c 20.24,-15.953 25.03,-26.586 25.03,-40.308 0,-7.032 -2.74,-20.067 -14.57,-28.469 -7.38,-5.149 -16.64,-7.203 -25.9,-7.203 -8.06,0 -15.95,1.199 -22.98,4.629"
             style="fill:#231f20;fill-opacity:1;fill-rule:nonzero;stroke:none"
             id="path42"
             inkscape:connector-curvature="0" /><path
             d="m 1486.01,232.23 c 0,-16.464 0,-30.011 0.86,-37.214 0.51,-4.977 1.54,-8.75 6.68,-9.434 2.41,-0.344 6.19,-0.691 7.73,-0.691 1.02,0 1.37,-0.512 1.37,-1.024 0,-0.859 -0.86,-1.371 -2.75,-1.371 -9.43,0 -20.23,0.512 -21.09,0.512 -0.86,0 -11.67,-0.512 -16.81,-0.512 -1.89,0 -2.74,0.34 -2.74,1.371 0,0.512 0.34,1.024 1.37,1.024 1.54,0 3.6,0.347 5.14,0.691 3.43,0.684 4.29,4.457 4.97,9.434 0.86,7.203 0.86,20.75 0.86,37.214 l 0,30.192 c 0,26.758 0,31.558 -0.34,37.047 -0.34,5.828 -2.06,8.75 -5.83,9.601 -1.89,0.52 -4.12,0.692 -5.32,0.692 -0.69,0 -1.37,0.34 -1.37,1.027 0,1.027 0.86,1.375 2.74,1.375 5.66,0 16.47,-0.519 17.33,-0.519 0.86,0 11.66,0.519 16.81,0.519 1.88,0 2.74,-0.348 2.74,-1.375 0,-0.687 -0.68,-1.027 -1.38,-1.027 -1.19,0 -2.22,-0.172 -4.28,-0.52 -4.63,-0.855 -6,-3.769 -6.34,-9.773 -0.35,-5.489 -0.35,-10.289 -0.35,-37.047 l 0,-30.192"
             style="fill:#231f20;fill-opacity:1;fill-rule:nonzero;stroke:none"
             id="path44"
             inkscape:connector-curvature="0" /><path
             d="m 1592.18,232.23 c 0,-16.464 0,-30.011 0.86,-37.214 0.5,-4.977 1.54,-8.75 6.69,-9.434 2.4,-0.344 6.17,-0.691 7.71,-0.691 1.03,0 1.38,-0.512 1.38,-1.024 0,-0.859 -0.86,-1.371 -2.75,-1.371 -9.43,0 -20.24,0.512 -21.1,0.512 -0.86,0 -11.66,-0.512 -16.81,-0.512 -1.88,0 -2.74,0.34 -2.74,1.371 0,0.512 0.34,1.024 1.38,1.024 1.54,0 3.59,0.347 5.13,0.691 3.44,0.684 4.3,4.457 4.98,9.434 0.86,7.203 0.86,20.75 0.86,37.214 l 0,72.555 -25.39,-0.344 c -10.63,-0.168 -14.74,-1.371 -17.49,-5.488 -1.88,-2.914 -2.4,-4.113 -2.92,-5.316 -0.51,-1.371 -1.02,-1.711 -1.71,-1.711 -0.51,0 -0.86,0.512 -0.86,1.543 0,1.711 3.43,16.461 3.77,17.836 0.35,1.031 1.03,3.254 1.72,3.254 1.2,0 2.91,-1.711 7.55,-2.055 4.97,-0.516 11.49,-0.859 13.55,-0.859 l 64.31,0 c 5.49,0 9.44,0.519 12.18,0.859 2.58,0.512 4.12,0.855 4.81,0.855 0.85,0 0.85,-1.023 0.85,-2.054 0,-5.149 -0.51,-16.985 -0.51,-18.867 0,-1.543 -0.51,-2.235 -1.2,-2.235 -0.85,0 -1.21,0.52 -1.37,2.918 l -0.18,1.891 c -0.68,5.144 -4.63,9.09 -21.09,9.429 l -21.61,0.344 0,-72.555"
             style="fill:#231f20;fill-opacity:1;fill-rule:nonzero;stroke:none"
             id="path46"
             inkscape:connector-curvature="0" /><path
             d="m 1705.55,226.914 c 0,9.262 -1.72,13.035 -3.95,18.012 -1.2,2.746 -24.19,40.48 -30.18,49.394 -4.3,6.348 -8.59,10.637 -11.67,12.696 -2.57,1.714 -5.83,2.746 -7.38,2.746 -0.86,0 -1.72,0.34 -1.72,1.199 0,0.684 0.7,1.203 2.24,1.203 3.25,0 16.12,-0.519 16.98,-0.519 1.19,0 7.72,0.519 14.41,0.519 1.88,0 2.22,-0.519 2.22,-1.203 0,-0.688 -1.02,-0.859 -2.56,-1.543 -1.38,-0.688 -2.24,-1.719 -2.24,-3.09 0,-2.055 0.86,-4.117 2.24,-6.691 2.74,-4.969 28.46,-49.223 31.55,-54.199 3.26,7.207 25.05,44.765 28.47,50.429 2.23,3.602 2.92,6.516 2.92,8.746 0,2.403 -0.69,4.289 -2.75,4.805 -1.54,0.512 -2.57,0.855 -2.57,1.715 0,0.683 1.03,1.031 2.75,1.031 4.46,0 9.95,-0.519 11.32,-0.519 1.03,0 13.37,0.519 16.64,0.519 1.2,0 2.22,-0.348 2.22,-1.031 0,-0.86 -0.86,-1.371 -2.22,-1.371 -1.89,0 -5.15,-0.692 -7.89,-2.403 -3.43,-2.062 -5.32,-4.117 -9.1,-8.746 -5.65,-6.867 -29.66,-47.168 -32.75,-54.547 -2.58,-6.171 -2.58,-11.488 -2.58,-17.152 l 0,-14.746 c 0,-2.742 0,-9.949 0.52,-17.152 0.34,-4.977 1.88,-8.75 7.03,-9.434 2.4,-0.344 6.17,-0.691 7.71,-0.691 1.04,0 1.38,-0.512 1.38,-1.024 0,-0.859 -0.86,-1.371 -2.74,-1.371 -9.44,0 -20.25,0.512 -21.11,0.512 -0.85,0 -11.66,-0.512 -16.8,-0.512 -1.89,0 -2.75,0.34 -2.75,1.371 0,0.512 0.35,1.024 1.38,1.024 1.54,0 3.59,0.347 5.15,0.691 3.42,0.684 4.97,4.457 5.31,9.434 0.52,7.203 0.52,14.41 0.52,17.152 l 0,14.746"
             style="fill:#231f20;fill-opacity:1;fill-rule:nonzero;stroke:none"
             id="path48"
             inkscape:connector-curvature="0" /><path
             d="m 625.652,6.51953 c 15.438,0 47.34,8.91407 47.34,58.82817 0,41.1643 -25.043,63.2893 -52.14,63.2893 -28.645,0 -50.086,-18.867 -50.086,-56.43 0,-39.9609 24.015,-65.68747 54.886,-65.68747 z M 622.051,134.469 c 38.594,0 67.406,-24.356 67.406,-64.3167 C 689.457,31.7266 662.359,0 621.02,0 c -46.993,0 -66.547,36.5312 -66.547,67.4062 0,27.7852 20.238,67.0628 67.578,67.0628"
             style="fill:#231f20;fill-opacity:1;fill-rule:nonzero;stroke:none"
             id="path50"
             inkscape:connector-curvature="0" /><path
             d="m 734.43,82.3281 c 0,26.7579 0,31.5589 -0.344,37.0469 -0.34,5.828 -1.715,8.574 -7.371,9.773 -1.371,0.348 -4.293,0.52 -5.836,0.52 -0.684,0 -1.371,0.344 -1.371,1.031 0,1.024 0.859,1.371 2.742,1.371 7.723,0 18.527,-0.519 19.387,-0.519 3.425,0 38.246,0 42.191,0.172 3.258,0.172 6,0.172 7.543,0.687 1.031,0.344 1.719,1.031 2.402,1.031 0.692,0 1.032,-0.687 1.032,-1.546 0,-1.196 -0.86,-3.258 -1.371,-8.063 -0.172,-1.715 -0.512,-9.258 -0.86,-11.316 -0.172,-0.86 -0.512,-1.887 -1.375,-1.887 -0.851,0 -1.199,0.855 -1.199,2.055 0,1.375 -0.512,4.289 -1.543,6.519 -1.023,2.231 -4.973,5.317 -11.66,5.488 l -26.414,0.512 c -1.031,0 -1.543,-0.512 -1.543,-1.883 l 0,-47.3395 c 0,-1.0313 0.168,-1.543 1.199,-1.543 l 21.953,0.1719 c 2.914,0 5.317,0 7.719,0.1718 4.117,0.3399 6.348,0.8594 7.891,3.086 0.683,0.8594 1.203,1.7187 1.886,1.7187 0.688,0 0.86,-0.5195 0.86,-1.3711 0,-1.0312 -0.86,-3.9492 -1.371,-9.6054 -0.348,-3.4336 -0.692,-10.293 -0.692,-11.4961 0,-1.543 0,-3.2578 -1.199,-3.2578 -0.856,0 -1.203,0.6836 -1.203,1.5429 -0.168,1.7149 -0.34,4.1172 -1.024,6.1719 -0.859,2.4024 -3.605,5.4883 -8.921,6.1797 -4.29,0.5117 -22.985,0.5117 -25.899,0.5117 -0.859,0 -1.199,-0.3398 -1.199,-1.5429 l 0,-14.5821 c 0,-16.4609 0,-30.0117 0.855,-37.2148 0.516,-4.97659 1.543,-8.75002 6.692,-9.43362 2.398,-0.34375 6.172,-0.6875 7.715,-0.6875 1.031,0 1.371,-0.51562 1.371,-1.02734 0,-0.85938 -0.856,-1.3711 -2.743,-1.3711 -9.433,0 -20.242,0.51172 -21.093,0.51172 -0.86,0 -11.664,-0.51172 -16.813,-0.51172 -1.886,0 -2.746,0.33985 -2.746,1.3711 0,0.51172 0.344,1.02734 1.375,1.02734 1.543,0 3.602,0.34375 5.145,0.6875 3.433,0.6836 4.289,4.45703 4.976,9.43362 0.856,7.2031 0.856,20.7539 0.856,37.2148 l 0,30.1914"
             style="fill:#231f20;fill-opacity:1;fill-rule:nonzero;stroke:none"
             id="path52"
             inkscape:connector-curvature="0" /><path
             d="m 898.918,82.3281 c 0,26.7579 0,31.5589 -0.348,37.0469 -0.343,5.828 -1.715,8.574 -7.375,9.773 -1.371,0.348 -4.285,0.52 -5.836,0.52 -0.679,0 -1.367,0.344 -1.367,1.031 0,1.024 0.856,1.371 2.746,1.367 7.715,0 18.18,-0.515 19.723,-0.515 1.543,0 11.836,0.515 16.977,0.519 1.894,0 2.746,-0.347 2.746,-1.371 0,-0.687 -0.688,-1.031 -1.372,-1.031 -1.199,0 -2.222,-0.172 -4.285,-0.52 -4.632,-0.679 -6.007,-3.765 -6.347,-9.773 -0.34,-5.488 -0.34,-10.289 -0.34,-37.0469 l 0,-24.0117 c 0,-24.6992 5.484,-35.332 12.859,-42.3633 8.406,-7.8906 16.121,-9.43357 25.899,-9.43357 10.461,0 20.754,4.96877 26.933,12.34767 7.891,9.7734 9.942,24.3555 9.942,42.0195 l 0,21.4414 c 0,26.7579 0,31.5589 -0.34,37.0469 -0.344,5.828 -1.711,8.574 -7.375,9.773 -1.375,0.348 -4.285,0.52 -5.828,0.52 -0.688,0 -1.379,0.344 -1.379,1.031 0,1.024 0.859,1.371 2.746,1.367 7.723,0 17.156,-0.515 18.183,-0.515 1.2,0 9.26,0.515 14.4,0.519 1.9,0 2.75,-0.347 2.75,-1.371 0,-0.687 -0.69,-1.031 -1.37,-1.031 -1.2,0 -2.23,0 -4.29,-0.52 -4.63,-0.851 -6,-3.765 -6.34,-9.773 -0.35,-5.488 -0.35,-10.289 -0.35,-37.0469 l 0,-18.3554 c 0,-18.5235 -2.057,-39.1055 -15.776,-51.2813 C 972.148,1.71484 959.285,0 949.172,0 943.34,0 926.016,0.683594 913.84,12.1758 c -8.41,8.0625 -14.922,20.0703 -14.922,45.1094 l 0,25.0429"
             style="fill:#231f20;fill-opacity:1;fill-rule:nonzero;stroke:none"
             id="path54"
             inkscape:connector-curvature="0" /><path
             d="m 1096.33,52.1367 c 0,-16.4609 0,-30.0117 0.86,-37.2148 0.51,-4.97659 1.54,-8.75002 6.69,-9.43362 2.4,-0.34375 6.17,-0.6875 7.71,-0.6875 1.04,0 1.38,-0.51562 1.38,-1.02734 0,-0.85938 -0.86,-1.3711 -2.75,-1.3711 -9.43,0 -20.24,0.51172 -21.1,0.51172 -0.86,0 -11.66,-0.51172 -16.81,-0.51172 -1.88,0 -2.74,0.33985 -2.74,1.3711 0,0.51172 0.34,1.02734 1.38,1.02734 1.54,0 3.59,0.34375 5.13,0.6875 3.44,0.6836 4.3,4.45703 4.98,9.43362 0.86,7.2031 0.86,20.7539 0.86,37.2148 l 0,72.5543 -25.39,-0.339 c -10.63,-0.172 -14.74,-1.375 -17.49,-5.489 -1.88,-2.918 -2.4,-4.117 -2.92,-5.316 -0.5,-1.375 -1.02,-1.715 -1.71,-1.715 -0.51,0 -0.86,0.512 -0.86,1.543 0,1.715 3.43,16.465 3.77,17.836 0.35,1.031 1.04,3.258 1.72,3.258 1.2,0 2.91,-1.715 7.55,-2.059 4.97,-0.515 11.49,-0.859 13.55,-0.859 l 64.31,0 c 5.49,0 9.44,0.519 12.18,0.859 2.58,0.516 4.12,0.856 4.81,0.856 0.85,0 0.85,-1.024 0.85,-2.055 0,-5.149 -0.51,-16.984 -0.51,-18.867 0,-1.543 -0.51,-2.231 -1.2,-2.231 -0.85,0 -1.2,0.516 -1.37,2.914 l -0.18,1.891 c -0.68,5.144 -4.63,9.09 -21.09,9.434 l -21.61,0.339 0,-72.5543"
             style="fill:#231f20;fill-opacity:1;fill-rule:nonzero;stroke:none"
             id="path56"
             inkscape:connector-curvature="0" /><path
             d="m 1221.72,59.1758 c 0.86,0 0.86,0.5117 0.68,1.1953 l -16.29,46.3129 c -0.86,2.574 -1.72,2.574 -2.57,0 l -15.09,-46.3129 c -0.34,-0.8555 0,-1.1953 0.51,-1.1953 l 32.76,0 z m -17.84,68.6012 c 2.06,5.664 2.74,6.692 3.78,6.692 1.02,0 1.71,-0.856 3.77,-6.172 2.57,-6.52 29.5,-77.3595 39.97,-103.4298 6.17,-15.26173 11.14,-18.00782 14.74,-19.03908 2.57,-0.85937 5.15,-1.02734 6.87,-1.02734 1.02,0 1.71,-0.17187 1.71,-1.02734 0,-1.03125 -1.55,-1.3711 -3.43,-1.3711 -2.58,0 -15.1,0 -26.93,0.33985 -3.26,0.17187 -5.14,0.17187 -5.14,1.20312 0,0.6836 0.51,1.02344 1.19,1.19922 1.04,0.34375 2.06,1.88672 1.04,4.62891 l -15.96,42.19536 c -0.34,0.6874 -0.69,1.0273 -1.54,1.0273 l -36.88,0 c -0.86,0 -1.37,-0.5117 -1.71,-1.3711 l -10.29,-30.3594 c -1.54,-4.289 -2.4,-8.4062 -2.4,-11.49216 0,-3.42969 3.6,-4.97266 6.51,-4.97266 l 1.72,0 c 1.2,0 1.72,-0.34375 1.72,-1.02734 0,-1.03125 -1.04,-1.3711 -2.58,-1.3711 -4.11,0 -11.5,0.51172 -13.38,0.51172 -1.88,0 -11.32,-0.51172 -19.38,-0.51172 -2.23,0 -3.26,0.33985 -3.26,1.3711 0,0.68359 0.69,1.02734 1.55,1.02734 1.2,0 3.6,0.16797 4.97,0.34375 7.89,1.02735 11.32,7.54687 14.41,16.12107 l 38.93,106.5114"
             style="fill:#231f20;fill-opacity:1;fill-rule:nonzero;stroke:none"
             id="path58"
             inkscape:connector-curvature="0" /><path
             d="m 1411.42,52.1367 c 0,-16.4609 0,-30.0117 0.86,-37.2148 0.51,-4.97659 1.54,-8.75002 6.68,-9.43362 2.41,-0.34375 6.18,-0.6875 7.72,-0.6875 1.03,0 1.38,-0.51562 1.38,-1.02734 0,-0.85938 -0.86,-1.3711 -2.75,-1.3711 -9.43,0 -20.24,0.51172 -21.1,0.51172 -0.85,0 -11.66,-0.51172 -16.81,-0.51172 -1.88,0 -2.74,0.33985 -2.74,1.3711 0,0.51172 0.34,1.02734 1.38,1.02734 1.54,0 3.6,0.34375 5.14,0.6875 3.43,0.6836 4.29,4.45703 4.97,9.43362 0.86,7.2031 0.86,20.7539 0.86,37.2148 l 0,18.0156 c 0,0.6836 -0.52,1.0235 -1.03,1.0235 l -72.73,0 c -0.51,0 -1.02,-0.168 -1.02,-1.0235 l 0,-18.0156 c 0,-16.4609 0,-30.0117 0.86,-37.2148 0.51,-4.97659 1.54,-8.75002 6.69,-9.43362 2.4,-0.34375 6.17,-0.6875 7.71,-0.6875 1.04,0 1.38,-0.51562 1.38,-1.02734 0,-0.85938 -0.86,-1.3711 -2.75,-1.3711 -9.43,0 -20.24,0.51172 -21.1,0.51172 -0.85,0 -11.66,-0.51172 -16.81,-0.51172 -1.88,0 -2.74,0.33985 -2.74,1.3711 0,0.51172 0.34,1.02734 1.38,1.02734 1.54,0 3.6,0.34375 5.14,0.6875 3.43,0.6836 4.29,4.45703 4.97,9.43362 0.86,7.2031 0.86,20.7539 0.86,37.2148 l 0,30.1914 c 0,26.7579 0,31.5589 -0.34,37.0469 -0.34,5.828 -1.72,8.574 -7.38,9.773 -1.37,0.348 -4.29,0.52 -5.83,0.52 -0.69,0 -1.37,0.344 -1.37,1.031 0,1.024 0.86,1.371 2.74,1.367 7.72,0 18.53,-0.515 19.38,-0.515 0.86,0 11.67,0.515 16.82,0.519 1.88,0 2.74,-0.347 2.74,-1.371 0,-0.687 -0.69,-1.031 -1.38,-1.031 -1.2,0 -2.22,-0.172 -4.28,-0.52 -4.63,-0.851 -6.01,-3.765 -6.35,-9.773 -0.34,-5.488 -0.34,-10.289 -0.34,-37.0469 l 0,-3.6015 c 0,-0.8594 0.51,-1.0313 1.02,-1.0313 l 72.73,0 c 0.51,0 1.03,0.1719 1.03,1.0313 l 0,3.6015 c 0,26.7579 0,31.5589 -0.34,37.0469 -0.34,5.828 -1.72,8.574 -7.38,9.773 -1.37,0.348 -4.29,0.52 -5.83,0.52 -0.69,0 -1.37,0.344 -1.37,1.031 0,1.024 0.86,1.371 2.74,1.367 7.72,0 18.53,-0.515 19.38,-0.515 0.86,0 11.67,0.515 16.82,0.519 1.88,0 2.74,-0.347 2.74,-1.371 0,-0.687 -0.69,-1.031 -1.38,-1.031 -1.2,0 -2.22,-0.172 -4.28,-0.52 -4.63,-0.851 -6.01,-3.765 -6.35,-9.773 -0.34,-5.488 -0.34,-10.289 -0.34,-37.0469 l 0,-30.1914"
             style="fill:#231f20;fill-opacity:1;fill-rule:nonzero;stroke:none"
             id="path60"
             inkscape:connector-curvature="0" /><path
             d="m 1481.75,107.598 3.4,0 c 3.85,0 7.14,1.41 7.14,5.043 0,2.574 -1.88,5.156 -7.14,5.156 -1.53,0 -2.58,-0.125 -3.4,-0.242 l 0,-9.957 z m 0,-16.2699 -4.69,0 0,29.3949 c 2.46,0.351 4.81,0.703 8.31,0.703 4.45,0 7.38,-0.942 9.13,-2.227 1.76,-1.289 2.71,-3.281 2.71,-6.094 0,-3.867 -2.58,-6.207 -5.74,-7.144 l 0,-0.234 c 2.58,-0.469 4.33,-2.813 4.92,-7.1372 0.69,-4.5703 1.4,-6.332 1.87,-7.2617 l -4.92,0 c -0.71,0.9297 -1.41,3.6289 -1.99,7.4961 -0.7,3.7378 -2.57,5.1448 -6.33,5.1448 l -3.27,0 0,-12.6409 z m 4.92,37.5859 c -11.6,0 -21.08,-9.949 -21.08,-22.242 0,-12.5392 9.48,-22.3751 21.19,-22.3751 11.71,-0.1133 21.09,9.8359 21.09,22.2501 0,12.418 -9.38,22.367 -21.09,22.367 l -0.11,0 z m 0.11,4.098 c 14.41,0 25.9,-11.703 25.9,-26.34 0,-14.879 -11.49,-26.4767 -26.01,-26.4767 -14.41,0 -26.12,11.5977 -26.12,26.4767 0,14.637 11.71,26.34 26.12,26.34 l 0.11,0"
             style="fill:#231f20;fill-opacity:1;fill-rule:nonzero;stroke:none"
             id="path62"
             inkscape:connector-curvature="0" /></g></g></g></g></svg>